<svg xmlns="http://www.w3.org/2000/svg" viewBox="0 0 22 22" fill="none">
  <path d="M11 3.8c.55-.08 1.12.02 1.55.38l.72 1.62c.48.18.93.44 1.33.76l1.72-.42c.58-.14 1.2.08 1.52.58l.98 1.38c.34.48.28 1.14-.14 1.56l-1.38 1.22c.06.48.06.96 0 1.44l1.28 1.34c.4.42.46 1.08.12 1.56l-1.22 1.02c-.44.36-1.08.42-1.58.14l-1.48-.98c-.46.24-.96.4-1.48.48l-.48 1.72c-.12.56-.6.98-1.18 1.02h-1.72c-.58-.04-1.06-.46-1.18-1.02l-.48-1.72c-.52-.08-1.02-.24-1.48-.48l-1.48.98c-.5.28-1.14.22-1.58-.14l-1.22-1.02c-.34-.48-.28-1.14.12-1.56l1.28-1.34c-.06-.48-.06-.96 0-1.44L3.66 9.72c-.42-.42-.48-1.08-.14-1.56l.98-1.38c.32-.5.94-.72 1.52-.58l1.72.42c.4-.32.85-.58 1.33-.76l.72-1.62c.43-.36 1-.46 1.55-.38h.76Z" stroke="#000" stroke-width="1.35" stroke-linecap="round" stroke-linejoin="round"/>
  <circle cx="11" cy="11" r="2.15" stroke="#000" stroke-width="1.35"/>
</svg>
